<svg width="261" height="260" viewBox="0 0 261 260" fill="none" xmlns="http://www.w3.org/2000/svg">
<g filter="url(#filter0_d_20_1650)">
<path d="M57.8182 138V114.727H71.8636V117.227H60.6364V125.091H71.1364V127.591H60.6364V135.5H72.0455V138H57.8182ZM78.5795 120.545L82.7614 127.682L86.9432 120.545H90.0341L84.3977 129.273L90.0341 138H86.9432L82.7614 131.227L78.5795 138H75.4886L81.0341 129.273L75.4886 120.545H78.5795ZM93.8608 144.545V120.545H96.4517V123.318H96.7699C96.9669 123.015 97.2396 122.629 97.5881 122.159C97.9441 121.682 98.4517 121.258 99.1108 120.886C99.7775 120.508 100.679 120.318 101.815 120.318C103.285 120.318 104.58 120.686 105.702 121.42C106.823 122.155 107.698 123.197 108.327 124.545C108.955 125.894 109.27 127.485 109.27 129.318C109.27 131.167 108.955 132.769 108.327 134.125C107.698 135.473 106.827 136.519 105.713 137.261C104.599 137.996 103.315 138.364 101.861 138.364C100.74 138.364 99.8419 138.178 99.1676 137.807C98.4934 137.428 97.9744 137 97.6108 136.523C97.2472 136.038 96.9669 135.636 96.7699 135.318H96.5426V144.545H93.8608ZM96.4972 129.273C96.4972 130.591 96.6903 131.754 97.0767 132.761C97.4631 133.761 98.0275 134.545 98.7699 135.114C99.5123 135.674 100.421 135.955 101.497 135.955C102.618 135.955 103.554 135.659 104.304 135.068C105.062 134.47 105.63 133.667 106.009 132.659C106.395 131.644 106.588 130.515 106.588 129.273C106.588 128.045 106.399 126.939 106.02 125.955C105.649 124.962 105.084 124.178 104.327 123.602C103.577 123.019 102.634 122.727 101.497 122.727C100.406 122.727 99.4896 123.004 98.7472 123.557C98.0047 124.102 97.4441 124.867 97.0653 125.852C96.6866 126.83 96.4972 127.97 96.4972 129.273ZM113.361 138V120.545H115.952V123.182H116.134C116.452 122.318 117.027 121.617 117.861 121.08C118.694 120.542 119.634 120.273 120.679 120.273C120.876 120.273 121.122 120.277 121.418 120.284C121.713 120.292 121.937 120.303 122.088 120.318V123.045C121.997 123.023 121.789 122.989 121.463 122.943C121.145 122.89 120.808 122.864 120.452 122.864C119.603 122.864 118.846 123.042 118.179 123.398C117.52 123.746 116.997 124.231 116.611 124.852C116.232 125.466 116.043 126.167 116.043 126.955V138H113.361ZM132.054 138.364C130.372 138.364 128.921 137.992 127.702 137.25C126.49 136.5 125.554 135.455 124.895 134.114C124.243 132.765 123.918 131.197 123.918 129.409C123.918 127.621 124.243 126.045 124.895 124.682C125.554 123.311 126.471 122.242 127.645 121.477C128.827 120.705 130.205 120.318 131.781 120.318C132.69 120.318 133.588 120.47 134.474 120.773C135.361 121.076 136.168 121.568 136.895 122.25C137.622 122.924 138.202 123.818 138.634 124.932C139.065 126.045 139.281 127.417 139.281 129.045V130.182H125.827V127.864H136.554C136.554 126.879 136.357 126 135.963 125.227C135.577 124.455 135.024 123.845 134.304 123.398C133.592 122.951 132.751 122.727 131.781 122.727C130.713 122.727 129.789 122.992 129.009 123.523C128.236 124.045 127.641 124.727 127.224 125.568C126.808 126.409 126.599 127.311 126.599 128.273V129.818C126.599 131.136 126.827 132.254 127.281 133.17C127.743 134.08 128.384 134.773 129.202 135.25C130.02 135.72 130.971 135.955 132.054 135.955C132.759 135.955 133.395 135.856 133.963 135.659C134.539 135.455 135.035 135.152 135.452 134.75C135.868 134.341 136.19 133.833 136.418 133.227L139.009 133.955C138.736 134.833 138.277 135.606 137.634 136.273C136.99 136.932 136.194 137.447 135.247 137.818C134.3 138.182 133.236 138.364 132.054 138.364ZM155.724 124.455L153.315 125.136C153.164 124.735 152.94 124.345 152.645 123.966C152.357 123.58 151.963 123.261 151.463 123.011C150.963 122.761 150.323 122.636 149.543 122.636C148.474 122.636 147.584 122.883 146.872 123.375C146.168 123.86 145.815 124.477 145.815 125.227C145.815 125.894 146.058 126.42 146.543 126.807C147.027 127.193 147.785 127.515 148.815 127.773L151.406 128.409C152.967 128.788 154.13 129.367 154.895 130.148C155.66 130.92 156.043 131.917 156.043 133.136C156.043 134.136 155.755 135.03 155.179 135.818C154.611 136.606 153.815 137.227 152.793 137.682C151.77 138.136 150.58 138.364 149.224 138.364C147.444 138.364 145.971 137.977 144.804 137.205C143.637 136.432 142.899 135.303 142.588 133.818L145.134 133.182C145.376 134.121 145.834 134.826 146.509 135.295C147.19 135.765 148.08 136 149.179 136C150.429 136 151.421 135.735 152.156 135.205C152.899 134.667 153.27 134.023 153.27 133.273C153.27 132.667 153.058 132.159 152.634 131.75C152.209 131.333 151.558 131.023 150.679 130.818L147.77 130.136C146.171 129.758 144.997 129.17 144.247 128.375C143.505 127.572 143.134 126.568 143.134 125.364C143.134 124.379 143.41 123.508 143.963 122.75C144.524 121.992 145.285 121.398 146.247 120.966C147.217 120.534 148.315 120.318 149.543 120.318C151.27 120.318 152.626 120.697 153.611 121.455C154.603 122.212 155.308 123.212 155.724 124.455ZM172.443 124.455L170.034 125.136C169.883 124.735 169.659 124.345 169.364 123.966C169.076 123.58 168.682 123.261 168.182 123.011C167.682 122.761 167.042 122.636 166.261 122.636C165.193 122.636 164.303 122.883 163.591 123.375C162.886 123.86 162.534 124.477 162.534 125.227C162.534 125.894 162.777 126.42 163.261 126.807C163.746 127.193 164.504 127.515 165.534 127.773L168.125 128.409C169.686 128.788 170.848 129.367 171.614 130.148C172.379 130.92 172.761 131.917 172.761 133.136C172.761 134.136 172.473 135.03 171.898 135.818C171.33 136.606 170.534 137.227 169.511 137.682C168.489 138.136 167.299 138.364 165.943 138.364C164.163 138.364 162.689 137.977 161.523 137.205C160.356 136.432 159.617 135.303 159.307 133.818L161.852 133.182C162.095 134.121 162.553 134.826 163.227 135.295C163.909 135.765 164.799 136 165.898 136C167.148 136 168.14 135.735 168.875 135.205C169.617 134.667 169.989 134.023 169.989 133.273C169.989 132.667 169.777 132.159 169.352 131.75C168.928 131.333 168.277 131.023 167.398 130.818L164.489 130.136C162.89 129.758 161.716 129.17 160.966 128.375C160.223 127.572 159.852 126.568 159.852 125.364C159.852 124.379 160.129 123.508 160.682 122.75C161.242 121.992 162.004 121.398 162.966 120.966C163.936 120.534 165.034 120.318 166.261 120.318C167.989 120.318 169.345 120.697 170.33 121.455C171.322 122.212 172.027 123.212 172.443 124.455ZM178.753 138.182C178.192 138.182 177.711 137.981 177.31 137.58C176.908 137.178 176.707 136.697 176.707 136.136C176.707 135.576 176.908 135.095 177.31 134.693C177.711 134.292 178.192 134.091 178.753 134.091C179.313 134.091 179.795 134.292 180.196 134.693C180.598 135.095 180.798 135.576 180.798 136.136C180.798 136.508 180.704 136.848 180.514 137.159C180.332 137.47 180.086 137.72 179.776 137.909C179.473 138.091 179.132 138.182 178.753 138.182ZM185.611 120.545H188.293V139.273C188.293 140.348 188.107 141.28 187.736 142.068C187.372 142.856 186.819 143.466 186.077 143.898C185.342 144.33 184.414 144.545 183.293 144.545C183.202 144.545 183.111 144.545 183.02 144.545C182.929 144.545 182.838 144.545 182.747 144.545V142.045C182.838 142.045 182.921 142.045 182.997 142.045C183.073 142.045 183.156 142.045 183.247 142.045C184.065 142.045 184.664 141.803 185.043 141.318C185.421 140.841 185.611 140.159 185.611 139.273V120.545ZM186.929 117.636C186.406 117.636 185.955 117.458 185.577 117.102C185.205 116.746 185.02 116.318 185.02 115.818C185.02 115.318 185.205 114.89 185.577 114.534C185.955 114.178 186.406 114 186.929 114C187.452 114 187.899 114.178 188.27 114.534C188.649 114.89 188.838 115.318 188.838 115.818C188.838 116.318 188.649 116.746 188.27 117.102C187.899 117.458 187.452 117.636 186.929 117.636ZM205.568 124.455L203.159 125.136C203.008 124.735 202.784 124.345 202.489 123.966C202.201 123.58 201.807 123.261 201.307 123.011C200.807 122.761 200.167 122.636 199.386 122.636C198.318 122.636 197.428 122.883 196.716 123.375C196.011 123.86 195.659 124.477 195.659 125.227C195.659 125.894 195.902 126.42 196.386 126.807C196.871 127.193 197.629 127.515 198.659 127.773L201.25 128.409C202.811 128.788 203.973 129.367 204.739 130.148C205.504 130.92 205.886 131.917 205.886 133.136C205.886 134.136 205.598 135.03 205.023 135.818C204.455 136.606 203.659 137.227 202.636 137.682C201.614 138.136 200.424 138.364 199.068 138.364C197.288 138.364 195.814 137.977 194.648 137.205C193.481 136.432 192.742 135.303 192.432 133.818L194.977 133.182C195.22 134.121 195.678 134.826 196.352 135.295C197.034 135.765 197.924 136 199.023 136C200.273 136 201.265 135.735 202 135.205C202.742 134.667 203.114 134.023 203.114 133.273C203.114 132.667 202.902 132.159 202.477 131.75C202.053 131.333 201.402 131.023 200.523 130.818L197.614 130.136C196.015 129.758 194.841 129.17 194.091 128.375C193.348 127.572 192.977 126.568 192.977 125.364C192.977 124.379 193.254 123.508 193.807 122.75C194.367 121.992 195.129 121.398 196.091 120.966C197.061 120.534 198.159 120.318 199.386 120.318C201.114 120.318 202.47 120.697 203.455 121.455C204.447 122.212 205.152 123.212 205.568 124.455Z" fill="black"/>
<rect x="41.224" y="36.5" width="179" height="179" rx="31.5" stroke="white"/>
</g>
<defs>
<filter id="filter0_d_20_1650" x="0.723999" y="0" width="260" height="260" filterUnits="userSpaceOnUse" color-interpolation-filters="sRGB">
<feFlood flood-opacity="0" result="BackgroundImageFix"/>
<feColorMatrix in="SourceAlpha" type="matrix" values="0 0 0 0 0 0 0 0 0 0 0 0 0 0 0 0 0 0 127 0" result="hardAlpha"/>
<feOffset dy="4"/>
<feGaussianBlur stdDeviation="20"/>
<feComposite in2="hardAlpha" operator="out"/>
<feColorMatrix type="matrix" values="0 0 0 0 0.0367917 0 0 0 0 0.0348958 0 0 0 0 0.0484375 0 0 0 0.1 0"/>
<feBlend mode="normal" in2="BackgroundImageFix" result="effect1_dropShadow_20_1650"/>
<feBlend mode="normal" in="SourceGraphic" in2="effect1_dropShadow_20_1650" result="shape"/>
</filter>
</defs>
</svg>
