<svg width="261" height="261" viewBox="0 0 261 261" fill="none" xmlns="http://www.w3.org/2000/svg">
<g filter="url(#filter0_d_20_1660)">
<rect x="40.8955" y="36.7029" width="180" height="180" rx="32" fill="white"/>
<rect x="41.3955" y="37.2029" width="179" height="179" rx="31.5" stroke="white"/>
</g>
<path d="M126.905 78.0669C129.385 76.6476 132.615 76.6412 135.092 78.0669C147.556 85.1094 160.023 92.141 172.485 99.1878C174.828 100.508 176.396 103.117 176.372 105.817V148.188C176.39 151.001 174.667 153.671 172.194 154.962C159.772 161.966 147.355 168.978 134.935 175.982C132.404 177.429 129.11 177.317 126.658 175.752C122.934 173.593 119.203 171.444 115.478 169.287C114.717 168.834 113.859 168.473 113.322 167.735C113.797 167.094 114.646 167.014 115.337 166.735C116.891 166.24 118.319 165.447 119.747 164.677C120.108 164.43 120.549 164.525 120.895 164.746C124.08 166.572 127.237 168.451 130.432 170.259C131.114 170.653 131.804 170.13 132.387 169.806C144.577 162.916 156.782 156.052 168.971 149.16C169.422 148.943 169.672 148.463 169.635 147.969C169.644 133.992 169.637 120.012 169.64 106.035C169.691 105.473 169.366 104.957 168.859 104.727C156.479 97.7557 144.106 90.7733 131.729 83.7999C131.514 83.6524 131.26 83.5733 131 83.5729C130.74 83.5726 130.486 83.6509 130.271 83.7977C117.893 90.7733 105.522 97.7621 93.1449 104.733C92.6392 104.964 92.2998 105.471 92.36 106.035C92.3621 120.012 92.36 133.992 92.36 147.971C92.3385 148.212 92.3915 148.454 92.5119 148.665C92.6322 148.875 92.8141 149.043 93.0331 149.147C96.3361 151.02 99.6433 152.88 102.948 154.747C104.81 155.749 107.097 156.344 109.148 155.577C110.958 154.927 112.227 153.08 112.193 151.158C112.21 137.262 112.184 123.364 112.206 109.471C112.16 108.854 112.746 108.344 113.345 108.402C114.932 108.392 116.521 108.381 118.108 108.407C118.771 108.392 119.227 109.056 119.145 109.677C119.138 123.661 119.162 137.645 119.134 151.629C119.138 155.355 117.607 159.411 114.16 161.234C109.913 163.434 104.664 162.967 100.469 160.858C96.8368 159.045 93.3707 156.906 89.8032 154.964C87.324 153.68 85.6098 150.999 85.6273 148.188V105.817C85.6013 103.061 87.2314 100.405 89.6482 99.1038C102.069 92.0943 114.487 85.0795 126.905 78.0669Z" fill="#8CC84B"/>
<path d="M137.741 107.417C143.158 107.069 148.957 107.211 153.832 109.879C157.606 111.925 159.699 116.217 159.765 120.41C159.66 120.975 159.069 121.287 158.529 121.248C156.957 121.246 155.385 121.27 153.813 121.238C153.146 121.263 152.759 120.649 152.675 120.059C152.224 118.053 151.13 116.066 149.241 115.098C146.343 113.647 142.981 113.72 139.821 113.75C137.513 113.873 135.032 114.072 133.077 115.429C131.576 116.457 131.12 118.532 131.656 120.203C132.161 121.403 133.546 121.79 134.679 122.147C141.207 123.855 148.125 123.685 154.529 125.932C157.18 126.848 159.774 128.628 160.681 131.404C161.868 135.125 161.348 139.572 158.701 142.558C156.555 145.016 153.428 146.354 150.31 147.08C146.162 148.005 141.857 148.029 137.645 147.618C133.683 147.167 129.561 146.126 126.503 143.427C123.888 141.157 122.611 137.619 122.738 134.204C122.768 133.628 123.342 133.226 123.895 133.273C125.478 133.26 127.06 133.256 128.643 133.275C129.275 133.23 129.744 133.776 129.776 134.372C130.068 136.284 130.787 138.29 132.454 139.423C135.67 141.498 139.707 141.356 143.39 141.414C146.442 141.279 149.867 141.238 152.357 139.221C153.671 138.071 154.06 136.146 153.705 134.49C153.321 133.093 151.858 132.441 150.602 132.015C144.158 129.977 137.163 130.716 130.78 128.411C128.189 127.495 125.684 125.764 124.688 123.102C123.299 119.335 123.936 114.675 126.86 111.789C129.712 108.918 133.828 107.813 137.741 107.417V107.417Z" fill="#8CC84B"/>
<defs>
<filter id="filter0_d_20_1660" x="0.895508" y="0.702881" width="260" height="260" filterUnits="userSpaceOnUse" color-interpolation-filters="sRGB">
<feFlood flood-opacity="0" result="BackgroundImageFix"/>
<feColorMatrix in="SourceAlpha" type="matrix" values="0 0 0 0 0 0 0 0 0 0 0 0 0 0 0 0 0 0 127 0" result="hardAlpha"/>
<feOffset dy="4"/>
<feGaussianBlur stdDeviation="20"/>
<feComposite in2="hardAlpha" operator="out"/>
<feColorMatrix type="matrix" values="0 0 0 0 0.0367917 0 0 0 0 0.0348958 0 0 0 0 0.0484375 0 0 0 0.1 0"/>
<feBlend mode="normal" in2="BackgroundImageFix" result="effect1_dropShadow_20_1660"/>
<feBlend mode="normal" in="SourceGraphic" in2="effect1_dropShadow_20_1660" result="shape"/>
</filter>
</defs>
</svg>
