<svg width="261" height="261" viewBox="0 0 261 261" fill="none" xmlns="http://www.w3.org/2000/svg">
<g filter="url(#filter0_d_25_409)">
<rect x="40.1718" y="36.4058" width="180" height="180" rx="32" fill="white"/>
<rect x="40.6718" y="36.9058" width="179" height="179" rx="31.5" stroke="white"/>
</g>
<path d="M169.573 95.4399C163.528 87.6126 155.298 81.7536 145.923 78.604C136.549 75.4543 126.451 75.1555 116.906 77.7453C107.362 80.3351 98.7996 85.6972 92.3027 93.1534C85.8059 100.61 81.6661 109.825 80.4069 119.634C79.1478 129.443 80.8259 139.405 85.2289 148.261C89.6319 157.116 96.5622 164.467 105.143 169.383C113.724 174.3 123.57 176.561 133.436 175.881C143.303 175.202 152.746 171.611 160.571 165.564C182.415 148.683 186.446 117.291 169.571 95.4399H169.573Z" fill="#FF6C37"/>
<path d="M146.863 107.859L125.781 129.109L119.823 122.984C140.573 102.234 142.656 104.109 146.865 107.859H146.863Z" fill="white"/>
<path d="M125.781 129.689C125.594 129.685 125.416 129.611 125.281 129.482L119.281 123.482C119.146 123.342 119.07 123.155 119.07 122.961C119.07 122.766 119.146 122.579 119.281 122.44C139.739 101.982 142.531 102.94 147.364 107.315C147.444 107.379 147.509 107.462 147.553 107.556C147.596 107.65 147.617 107.753 147.614 107.857C147.645 108.06 147.567 108.268 147.406 108.399L126.323 129.483C126.175 129.619 125.981 129.693 125.781 129.691V129.689ZM120.864 122.982L125.781 127.899L145.781 107.899C145.09 107.034 144.105 106.453 143.013 106.269C141.922 106.084 140.8 106.309 139.864 106.899C136.239 108.524 130.406 113.482 120.864 122.982Z" fill="#FF6C37"/>
<path d="M131.823 134.983L126.073 129.108L147.156 108.274C152.823 113.816 144.406 123.066 131.823 134.982V134.983Z" fill="white"/>
<path d="M131.823 135.733C131.639 135.719 131.464 135.646 131.323 135.525L125.448 129.775C125.36 129.562 125.36 129.322 125.448 129.108C125.386 128.933 125.386 128.741 125.448 128.566L146.531 107.484C146.677 107.346 146.871 107.269 147.072 107.269C147.273 107.269 147.467 107.346 147.614 107.484C148.296 108.112 148.836 108.88 149.195 109.735C149.555 110.591 149.726 111.514 149.696 112.441C149.696 118.066 143.279 125.149 132.364 135.483C132.218 135.627 132.026 135.716 131.822 135.733H131.823ZM127.156 129.108L131.864 133.814C140.196 125.94 148.156 117.815 148.196 112.315C148.242 111.149 147.856 110.007 147.114 109.107L127.156 129.108Z" fill="#FF6C37"/>
<path d="M119.989 123.108L124.156 127.276C124.183 127.299 124.204 127.328 124.218 127.36C124.233 127.393 124.241 127.428 124.241 127.463C124.241 127.499 124.233 127.534 124.218 127.566C124.204 127.598 124.183 127.627 124.156 127.651L115.364 129.526C115.186 129.564 115.001 129.543 114.837 129.466C114.672 129.39 114.537 129.262 114.452 129.101C114.367 128.941 114.337 128.757 114.366 128.578C114.395 128.398 114.482 128.234 114.614 128.108L119.739 123.026C119.739 123.026 119.906 123.026 119.989 123.108Z" fill="white"/>
<path d="M115.156 130.358C114.878 130.355 114.606 130.28 114.365 130.141C114.124 130.003 113.923 129.805 113.781 129.566C113.621 129.264 113.563 128.918 113.615 128.58C113.668 128.242 113.829 127.93 114.073 127.691L119.156 122.566C119.339 122.402 119.576 122.312 119.822 122.312C120.068 122.312 120.305 122.402 120.489 122.566L124.656 126.733C124.903 126.968 125 127.322 124.906 127.651C124.812 127.979 124.537 128.24 124.198 128.318L115.406 130.193L115.156 130.358ZM119.823 124.026L115.115 128.733L122.907 127.066L119.823 124.026Z" fill="#FF6C37"/>
<path d="M158.073 96.1493C155.057 93.2399 150.32 93.118 147.157 95.8633C143.995 98.6086 143.454 103.321 145.917 106.712C148.379 110.102 153.021 111.052 156.615 108.899L150.948 103.232L158.073 96.1493Z" fill="white"/>
<path d="M152.448 110.815C150.715 110.793 149.028 110.261 147.595 109.286C146.163 108.312 145.048 106.937 144.392 105.334C143.735 103.731 143.563 101.972 143.896 100.273C144.23 98.5738 145.054 97.0098 146.267 95.7742C147.935 94.1367 150.179 93.2192 152.517 93.2192C154.854 93.2192 157.098 94.1367 158.767 95.7742C158.926 95.9086 159.017 96.107 159.017 96.3164C159.016 96.4194 158.994 96.5211 158.951 96.6147C158.907 96.7082 158.845 96.7914 158.767 96.8586L152.017 103.234L157.142 108.276C157.225 108.355 157.287 108.453 157.323 108.562C157.36 108.671 157.369 108.787 157.349 108.901C157.337 109.01 157.301 109.115 157.243 109.209C157.186 109.302 157.108 109.382 157.017 109.443C155.64 110.303 154.057 110.778 152.434 110.818L152.448 110.815ZM152.448 94.6476C149.479 94.6633 146.823 96.4492 145.709 99.1789C144.595 101.909 145.201 105.051 147.282 107.148C148.318 108.189 149.643 108.893 151.085 109.168C152.528 109.443 154.019 109.277 155.365 108.69L150.448 103.773C150.37 103.71 150.307 103.631 150.263 103.541C150.22 103.45 150.197 103.352 150.197 103.251C150.197 103.151 150.22 103.053 150.263 102.962C150.307 102.872 150.37 102.793 150.448 102.73L156.948 96.1883C155.656 95.198 154.076 94.6565 152.448 94.6461V94.6476Z" fill="#FF6C37"/>
<path d="M158.198 96.2742L151.073 103.357L156.74 109.024C157.31 108.697 157.841 108.305 158.323 107.857C159.808 106.287 160.625 104.201 160.602 102.04C160.579 99.8792 159.717 97.8117 158.198 96.2742Z" fill="white"/>
<path d="M156.613 109.649C156.52 109.654 156.426 109.638 156.34 109.602C156.253 109.566 156.176 109.511 156.113 109.441L150.446 103.774C150.368 103.712 150.305 103.633 150.262 103.542C150.218 103.452 150.196 103.353 150.196 103.253C150.196 103.153 150.218 103.054 150.262 102.964C150.305 102.874 150.368 102.795 150.446 102.732L157.529 95.7744C157.597 95.6712 157.69 95.5866 157.799 95.5281C157.908 95.4696 158.03 95.439 158.154 95.439C158.278 95.439 158.4 95.4696 158.509 95.5281C158.618 95.5866 158.711 95.6712 158.779 95.7744C159.611 96.5891 160.271 97.5615 160.722 98.6347C161.173 99.7079 161.405 100.86 161.405 102.024C161.405 103.188 161.173 104.341 160.722 105.414C160.271 106.487 159.611 107.46 158.779 108.274C158.289 108.795 157.727 109.243 157.112 109.607C156.957 109.685 156.778 109.7 156.612 109.649H156.613ZM152.031 103.234L156.738 107.941C157.062 107.715 157.369 107.464 157.656 107.192C159.04 105.811 159.819 103.938 159.823 101.984C159.826 100.235 159.188 98.5448 158.031 97.2338L152.031 103.234Z" fill="#FF6C37"/>
<path d="M147.739 108.734C147.174 108.204 146.429 107.909 145.655 107.909C144.881 107.909 144.136 108.204 143.571 108.734L124.698 127.565L127.823 130.732L147.781 113.232C148.085 112.94 148.327 112.589 148.49 112.201C148.654 111.812 148.736 111.395 148.732 110.973C148.728 110.551 148.638 110.135 148.467 109.75C148.296 109.364 148.048 109.018 147.739 108.732V108.734Z" fill="white"/>
<path d="M127.656 131.483C127.469 131.479 127.291 131.405 127.156 131.276L123.989 128.108C123.854 127.969 123.778 127.782 123.778 127.587C123.778 127.393 123.854 127.206 123.989 127.066L142.864 108.274C143.407 107.731 144.102 107.364 144.856 107.22C145.611 107.077 146.392 107.163 147.097 107.469C147.802 107.774 148.399 108.284 148.811 108.933C149.222 109.582 149.43 110.339 149.406 111.107C149.384 111.628 149.259 112.14 149.037 112.612C148.815 113.084 148.501 113.508 148.114 113.857L128.156 131.357C128.011 131.46 127.832 131.504 127.656 131.482V131.483ZM125.448 127.565L127.531 129.69L147.114 112.648C147.598 112.226 147.887 111.623 147.906 110.98C147.925 110.338 147.671 109.71 147.198 109.273C146.761 108.837 146.169 108.593 145.552 108.593C144.935 108.593 144.343 108.837 143.906 109.273L125.448 127.565Z" fill="#FF6C37"/>
<path d="M110.073 149.024C110.02 149.096 109.991 149.184 109.991 149.274C109.991 149.364 110.02 149.451 110.073 149.524L110.906 153.149C110.939 153.362 110.908 153.581 110.815 153.776C110.723 153.971 110.574 154.134 110.387 154.243C110.202 154.351 109.986 154.398 109.772 154.376C109.558 154.355 109.357 154.266 109.197 154.122L103.489 148.622L121.281 130.69H127.448L131.615 134.857C125.115 140.54 117.867 145.307 110.073 149.024Z" fill="white"/>
<path d="M109.698 155.149C109.226 155.139 108.761 154.946 108.448 154.606L102.991 149.149C102.912 149.086 102.849 149.007 102.806 148.917C102.763 148.827 102.74 148.728 102.74 148.628C102.74 148.528 102.763 148.429 102.806 148.339C102.849 148.248 102.912 148.169 102.991 148.107L120.906 130.149C121.006 130.042 121.137 129.97 121.281 129.941H127.489C127.651 129.884 127.827 129.884 127.989 129.941L132.156 134.108C132.235 134.181 132.295 134.273 132.332 134.374C132.368 134.476 132.379 134.584 132.364 134.691C132.367 134.795 132.346 134.897 132.302 134.991C132.259 135.085 132.194 135.168 132.114 135.233L131.781 135.525C125.254 140.966 118.074 145.571 110.406 149.233L111.198 152.608C111.259 152.868 111.262 153.139 111.205 153.401C111.148 153.662 111.034 153.907 110.87 154.119C110.707 154.33 110.498 154.503 110.259 154.623C110.02 154.744 109.758 154.81 109.49 154.816L109.698 155.149ZM104.616 148.607L109.531 153.564C109.577 153.605 109.636 153.628 109.697 153.628C109.759 153.628 109.818 153.605 109.864 153.564C109.895 153.522 109.911 153.471 109.911 153.418C109.911 153.366 109.895 153.315 109.864 153.272L109.031 149.647C108.965 149.387 108.992 149.112 109.106 148.869C109.22 148.626 109.414 148.43 109.656 148.314C117.118 144.701 124.113 140.196 130.489 134.897L127.072 131.48H121.489L104.616 148.607Z" fill="#FF6C37"/>
<path d="M99.1983 152.899L103.365 148.732L109.783 155.149L99.5749 154.441C99.3996 154.427 99.2332 154.358 99.0993 154.245C98.9654 154.131 98.871 153.977 98.8294 153.807C98.7878 153.636 98.8013 153.456 98.8678 153.293C98.9343 153.131 99.0506 152.993 99.1999 152.9L99.1983 152.899Z" fill="white"/>
<path d="M109.906 155.774L99.739 155.066C99.1359 155.01 98.6171 154.597 98.4046 154.046C98.1921 153.494 98.3218 152.839 98.739 152.399L102.906 148.232C103.046 148.097 103.233 148.021 103.427 148.021C103.622 148.021 103.808 148.097 103.948 148.232L110.323 154.607C110.411 154.727 110.459 154.873 110.459 155.023C110.459 155.173 110.411 155.318 110.323 155.439C110.227 155.595 110.079 155.713 109.906 155.772V155.774ZM99.739 153.441L108.072 153.983L103.489 149.691L99.739 153.441Z" fill="#FF6C37"/>
<path d="M128.031 131.193L119.614 132.485L124.489 127.652L128.031 131.193Z" fill="white"/>
<path d="M119.614 133.274C119.474 133.278 119.336 133.24 119.217 133.166C119.099 133.092 119.005 132.984 118.947 132.857C118.858 132.736 118.81 132.59 118.81 132.44C118.81 132.291 118.858 132.145 118.947 132.024L123.779 127.149C123.926 127.011 124.12 126.935 124.321 126.935C124.522 126.935 124.716 127.011 124.862 127.149L128.406 130.69C128.477 130.802 128.514 130.932 128.514 131.065C128.514 131.197 128.477 131.327 128.406 131.44C128.371 131.577 128.298 131.7 128.194 131.797C128.091 131.893 127.962 131.957 127.823 131.982L119.49 133.274H119.614ZM124.489 128.732L121.781 131.44L126.448 130.732L124.489 128.732Z" fill="#FF6C37"/>
<path d="M128.031 131.19L122.156 131.94C121.999 131.975 121.834 131.959 121.687 131.894C121.539 131.829 121.417 131.718 121.337 131.578C121.258 131.438 121.226 131.275 121.246 131.115C121.266 130.955 121.337 130.806 121.448 130.69L124.49 127.647L128.031 131.19Z" fill="white"/>
<path d="M121.989 132.733C121.716 132.731 121.45 132.656 121.216 132.517C120.982 132.378 120.788 132.179 120.656 131.941C120.497 131.656 120.435 131.327 120.48 131.003C120.525 130.68 120.675 130.38 120.906 130.149L123.948 127.107C124.095 126.969 124.288 126.892 124.49 126.892C124.691 126.892 124.884 126.969 125.031 127.107L128.573 130.649C128.678 130.749 128.753 130.877 128.787 131.018C128.82 131.159 128.813 131.307 128.764 131.444C128.716 131.581 128.629 131.7 128.513 131.789C128.398 131.877 128.26 131.93 128.115 131.941L122.283 132.691L121.989 132.733ZM121.989 131.191L126.406 130.649L124.448 128.691L121.948 131.191H121.989ZM158.238 101.066C158.16 100.935 158.036 100.837 157.89 100.791C157.744 100.745 157.586 100.754 157.446 100.816C157.377 100.851 157.316 100.9 157.266 100.959C157.216 101.018 157.179 101.086 157.156 101.16C157.109 101.309 157.124 101.47 157.196 101.609C157.488 102.223 157.407 102.949 156.988 103.484C156.936 103.535 156.896 103.597 156.869 103.665C156.842 103.733 156.829 103.806 156.832 103.879C156.834 104.025 156.889 104.166 156.988 104.274C157.095 104.316 157.214 104.316 157.321 104.274C157.418 104.299 157.52 104.296 157.616 104.266C157.711 104.237 157.797 104.182 157.863 104.107C158.207 103.687 158.424 103.178 158.49 102.64C158.557 102.102 158.469 101.556 158.238 101.065V101.066Z" fill="#FF6C37"/>
<defs>
<filter id="filter0_d_25_409" x="0.171753" y="0.405762" width="260" height="260" filterUnits="userSpaceOnUse" color-interpolation-filters="sRGB">
<feFlood flood-opacity="0" result="BackgroundImageFix"/>
<feColorMatrix in="SourceAlpha" type="matrix" values="0 0 0 0 0 0 0 0 0 0 0 0 0 0 0 0 0 0 127 0" result="hardAlpha"/>
<feOffset dy="4"/>
<feGaussianBlur stdDeviation="20"/>
<feComposite in2="hardAlpha" operator="out"/>
<feColorMatrix type="matrix" values="0 0 0 0 0.0367917 0 0 0 0 0.0348958 0 0 0 0 0.0484375 0 0 0 0.1 0"/>
<feBlend mode="normal" in2="BackgroundImageFix" result="effect1_dropShadow_25_409"/>
<feBlend mode="normal" in="SourceGraphic" in2="effect1_dropShadow_25_409" result="shape"/>
</filter>
</defs>
</svg>
