<svg width="261" height="261" viewBox="0 0 261 261" fill="none" xmlns="http://www.w3.org/2000/svg">
<g filter="url(#filter0_d_20_1665)">
<rect x="40.4479" y="36.4058" width="180" height="180" rx="32" fill="white"/>
<rect x="40.9479" y="36.9058" width="179" height="179" rx="31.5" stroke="white"/>
</g>
<path d="M80 76.8335H180V175.167H80V76.8335Z" fill="url(#paint0_linear_20_1665)"/>
<path d="M87.953 84.6533H172.048V167.347H87.953V84.6533Z" fill="url(#paint1_linear_20_1665)"/>
<path d="M104.166 104.548C104.166 104.548 110.489 104.382 115.693 104.382C120.953 104.382 124.703 105.619 127.22 107.794C129.627 109.848 131.249 113.351 131.249 117.338C131.249 121.326 130.018 124.588 127.779 126.882C124.87 129.843 121.479 131.595 115.693 131.837C114.095 131.904 112.616 131.92 112.616 131.92V144.882H104.166L104.166 104.548ZM112.615 124.739C113.533 124.829 114.109 124.786 115.469 124.769C120.002 124.715 122.799 121.959 122.799 117.79C122.799 114.046 120.493 110.971 116.141 110.812C114.407 110.748 112.615 110.812 112.615 110.812V124.739Z" fill="url(#paint2_linear_20_1665)"/>
<path d="M134.474 135.852C136.177 136.897 140.196 138.462 142.935 138.462C145.734 138.462 146.889 137.476 146.889 135.938C146.889 134.398 145.977 132.781 142.508 131.612C136.361 129.519 133.988 127.013 134.049 123.507C134.049 117.843 138.795 113.596 146.159 113.596C149.627 113.596 152.398 114.73 154.222 115.653V122.45C152.882 121.711 149.019 120.06 146.463 120.06C144.21 120.06 142.933 120.984 142.933 122.521C142.933 123.937 144.09 124.676 147.741 125.969C153.4 127.938 155.773 130.83 155.833 135.262C155.833 140.864 151.515 145.318 142.933 145.048C139.988 144.955 136.725 143.791 134.473 142.561L134.474 135.852Z" fill="url(#paint3_linear_20_1665)"/>
<defs>
<filter id="filter0_d_20_1665" x="0.447876" y="0.405762" width="260" height="260" filterUnits="userSpaceOnUse" color-interpolation-filters="sRGB">
<feFlood flood-opacity="0" result="BackgroundImageFix"/>
<feColorMatrix in="SourceAlpha" type="matrix" values="0 0 0 0 0 0 0 0 0 0 0 0 0 0 0 0 0 0 127 0" result="hardAlpha"/>
<feOffset dy="4"/>
<feGaussianBlur stdDeviation="20"/>
<feComposite in2="hardAlpha" operator="out"/>
<feColorMatrix type="matrix" values="0 0 0 0 0.0367917 0 0 0 0 0.0348958 0 0 0 0 0.0484375 0 0 0 0.1 0"/>
<feBlend mode="normal" in2="BackgroundImageFix" result="effect1_dropShadow_20_1665"/>
<feBlend mode="normal" in="SourceGraphic" in2="effect1_dropShadow_20_1665" result="shape"/>
</filter>
<linearGradient id="paint0_linear_20_1665" x1="104.302" y1="71.6982" x2="142.635" y2="152.698" gradientUnits="userSpaceOnUse">
<stop stop-color="#A0CBFF"/>
<stop offset="0.394" stop-color="#A0CBFE"/>
<stop offset="0.583" stop-color="#8EC2FC"/>
<stop offset="0.784" stop-color="#83BCFB"/>
<stop offset="1" stop-color="#7FBAFB"/>
</linearGradient>
<linearGradient id="paint1_linear_20_1665" x1="117.908" y1="85.8187" x2="139.575" y2="157.819" gradientUnits="userSpaceOnUse">
<stop stop-color="#090058"/>
<stop offset="1" stop-color="#070033"/>
</linearGradient>
<linearGradient id="paint2_linear_20_1665" x1="92.379" y1="76.0082" x2="130.712" y2="157.008" gradientUnits="userSpaceOnUse">
<stop stop-color="#A0CBFF"/>
<stop offset="0.394" stop-color="#A0CBFE"/>
<stop offset="0.583" stop-color="#8EC2FC"/>
<stop offset="0.784" stop-color="#83BCFB"/>
<stop offset="1" stop-color="#7FBAFB"/>
</linearGradient>
<linearGradient id="paint3_linear_20_1665" x1="114.214" y1="65.4319" x2="152.699" y2="146.752" gradientUnits="userSpaceOnUse">
<stop stop-color="#A0CBFF"/>
<stop offset="0.394" stop-color="#A0CBFE"/>
<stop offset="0.583" stop-color="#8EC2FC"/>
<stop offset="0.784" stop-color="#83BCFB"/>
<stop offset="1" stop-color="#7FBAFB"/>
</linearGradient>
</defs>
</svg>
